<svg xmlns="http://www.w3.org/2000/svg" width="84" height="78"><g fill="none" fill-rule="evenodd"><path fill="#FFB500" d="M38.127 3.153s-10.96 46.429 3.518 71.902c0 0-9.114-5.86-18.5-12.02-5.684-3.73-11.812-7.266-15.092-10.544-2.586-2.583-1.112-4.682-.415-5.855 3.042-5.113 30.49-43.483 30.49-43.483"/><path stroke="#001E62" stroke-linecap="square" stroke-width="1.444" d="M42.883 76.236L8.053 52.49s-3.483-2.4-.804-6.135c5.233-7.295 21.166-30.148 21.166-30.148M7.324 27.46C.937 22.803-15.253-.345 53.6 11.671m7.081-2.531a5.739 5.739 0 0 1 3.636 5.333c0 3.168-2.58 5.736-5.76 5.736-3.182 0-5.76-2.568-5.76-5.736 0-1.02.152-1.762.62-2.592"/><path stroke="#001E62" stroke-linecap="square" stroke-width="1.444" d="M48.977 68.04L78.25 27.68 68.067 1H39.936l-6.32 7.524"/><path fill="#FF808B" d="M51.668 50.19c-1.13-.838-.535-2.283.873-2.283h9.243c.634 0 1.195-.749 1.39-1.35l2.831-8.845c.438-1.342 2.343-1.427 2.782-.086l2.532 7.718c-.835 2.189-2.088 4.473-3.923 6.855-3.06 3.97-3.665 7.895-2.994 11.485l-5.299 3.805c-1.145.824-2.681-.29-2.247-1.63l2.858-8.824c.191-.593-.018-1.07-.52-1.443l-7.526-5.403z"/><path stroke="#001E62" stroke-linecap="square" stroke-linejoin="round" stroke-width="1.444" d="M68.44 37.54l2.83 8.675c.195.6.757 1.007 1.39 1.007h9.244c1.408 0 2.002 1.787.872 2.624l-7.525 5.573a1.452 1.452 0 0 0-.52 1.616l2.858 8.822c.433 1.338-1.103 2.451-2.247 1.627l-7.434-5.345a1.468 1.468 0 0 0-1.717.003l-7.432 5.393c-1.143.83-2.686-.28-2.253-1.621l2.862-8.892a1.454 1.454 0 0 0-.52-1.614l-7.522-5.562c-1.13-.836-.536-2.624.873-2.624h9.238c.633 0 1.195-.407 1.39-1.007l2.83-8.674c.439-1.342 2.345-1.342 2.782 0z"/></g></svg>