<svg xmlns="http://www.w3.org/2000/svg" width="84" height="85"><g fill="none" fill-rule="evenodd"><path fill="#FF808B" d="M44.594 20.773a7.398 7.398 0 0 0-5.952 2.997c.243-.03.49-.048.741-.048 2.022 0 3.814.967 4.952 2.458a2.02 2.02 0 0 1 1.278 3.746l.002.027c0 1.945-1.991 5.037-3.723 7.361.295.39.581.758.85 1.098a2.36 2.36 0 0 0 3.704 0c2.195-2.773 5.558-7.471 5.558-10.228a7.41 7.41 0 0 0-7.41-7.41"/><path stroke="#001E62" stroke-linecap="square" stroke-linejoin="round" stroke-width="1.405" d="M51.592 28.339c0 2.84-3.465 7.68-5.725 10.536a2.433 2.433 0 0 1-3.816 0c-2.26-2.856-5.725-7.696-5.725-10.536a7.633 7.633 0 1 1 15.266 0z"/><path stroke="#001E62" stroke-linecap="square" stroke-linejoin="round" stroke-width="1.405" d="M46.04 28.339a2.081 2.081 0 1 1-4.162 0 2.081 2.081 0 0 1 4.163 0z"/><path fill="#FFB500" d="M66.858 30.158c-5.098 0-9.622 2.464-12.445 6.265.509-.06 1.024-.1 1.549-.1 4.227 0 7.973 2.022 10.354 5.143.178-.022.358-.039.542-.039a4.226 4.226 0 0 1 4.226 4.226 4.22 4.22 0 0 1-2.095 3.645c0 .02.003.037.003.055 0 4.069-4.163 10.536-7.783 15.394.617.815 1.215 1.586 1.777 2.295 1.979 2.5 5.766 2.5 7.745 0 4.59-5.8 11.623-15.624 11.623-21.389 0-8.557-6.938-15.495-15.496-15.495"/><path stroke="#001E62" stroke-linecap="square" stroke-linejoin="round" stroke-width="1.405" d="M82.354 45.653c0 5.765-7.033 15.591-11.623 21.388-1.978 2.5-5.767 2.5-7.745 0-4.59-5.797-11.622-15.623-11.622-21.388 0-8.558 6.937-15.495 15.495-15.495 8.557 0 15.495 6.937 15.495 15.495z"/><path stroke="#001E62" stroke-linecap="square" stroke-linejoin="round" stroke-width="1.405" d="M82.354 45.653c0 5.765-7.033 15.591-11.623 21.388-1.978 2.5-5.767 2.5-7.745 0-4.59-5.797-11.622-15.623-11.622-21.388 0-8.558 6.937-15.495 15.495-15.495 8.557 0 15.495 6.937 15.495 15.495z"/><path stroke="#001E62" stroke-linecap="square" stroke-linejoin="round" stroke-width="1.405" d="M71.085 45.653a4.226 4.226 0 1 1-8.452 0 4.226 4.226 0 0 1 8.452 0z"/><path stroke="#001E62" stroke-linecap="square" stroke-linejoin="round" stroke-width="1.405" d="M62.533 30.654c1.09-6.085-.64-12.59-5.147-17.322-7.87-8.267-21.032-8.267-28.903 0-7.08 7.437-7.312 19.246-.505 26.935.186.211.376.416.569.618 2.06 2.143 2.09 5.513-.021 7.607L9.338 67.528a4.742 4.742 0 0 1-6.706-6.706L21.27 42.184l.175-.123c-7.332-10.518-5.992-25.247 4.023-34.226 9.644-8.646 24.423-8.81 34.24-.357C71.301 17.46 71.79 34.98 61.171 45.599c-7.772 7.772-19.241 9.594-28.747 5.465m3.276-5.4a20.004 20.004 0 0 0 15.476-.424M52 68.598c.145 3.58-3.975 9.855-6.678 13.57a3.068 3.068 0 0 1-4.809.194c-2.995-3.484-7.607-9.408-7.752-12.987-.215-5.313 3.918-9.794 9.23-10.009a9.63 9.63 0 0 1 10.01 9.232z"/><path stroke="#001E62" stroke-linecap="square" stroke-linejoin="round" stroke-width="1.405" d="M45.004 68.88a2.627 2.627 0 1 1-5.249.211 2.627 2.627 0 0 1 5.25-.21z"/></g></svg>