<svg xmlns="http://www.w3.org/2000/svg" width="84" height="83"><g fill="none" fill-rule="evenodd"><path fill="#FFB500" d="M24.69 61.541c-1.662-4.62.584-9.613 2.411-14.17 1.827-4.556 3.12-10.201.027-14.013-2.624-3.233-7.376-3.774-10.643-6.356-3.921-3.1-4.573-9.227-2.15-13.473C6.166 18.857.766 28.074.766 38.552.767 54.821 13.78 68.05 29.965 68.4c-2.106-2.086-4.29-4.118-5.276-6.859"/><path stroke="#001E62" stroke-linecap="square" stroke-linejoin="round" stroke-width="1.535" d="M60.48 38.552c0 16.49-13.366 29.857-29.856 29.857-16.49 0-29.857-13.367-29.857-29.857S14.135 8.695 30.624 8.695c16.49 0 29.857 13.367 29.857 29.857z"/><path fill="#FF808B" d="M40.426 38.03h-8.959V22.426c0-1.155-.89-2.163-2.047-2.198a2.11 2.11 0 0 0-2.175 2.11V38.03h-.06a4.282 4.282 0 0 0 4.282 4.222h9.048a2.11 2.11 0 0 0 2.11-2.176c-.035-1.155-1.043-2.046-2.199-2.046"/><path stroke="#001E62" stroke-linecap="square" stroke-linejoin="round" stroke-width="1.535" d="M40.426 38.03h-8.959V22.426c0-1.155-.89-2.163-2.047-2.198a2.11 2.11 0 0 0-2.175 2.11V38.03h-.06a4.282 4.282 0 0 0 4.282 4.222h9.048a2.11 2.11 0 0 0 2.11-2.176c-.035-1.155-1.043-2.046-2.199-2.046zm13.48 32.573l.566-1.743c.23-.709 1.234-.709 1.464 0l1.184 3.647a.77.77 0 0 0 .733.532h3.834c.745 0 1.056.954.453 1.392l-3.102 2.254a.768.768 0 0 0-.28.86l1.185 3.647c.23.71-.582 1.3-1.184.861L55.656 79.8a.77.77 0 0 0-.904 0l-3.102 2.254c-.604.438-1.415-.15-1.185-.86l1.186-3.648a.772.772 0 0 0-.28-.86l-3.103-2.254c-.603-.438-.293-1.392.453-1.392h3.834M74.023 22.5l.566-1.741c.23-.709 1.233-.709 1.464 0l1.184 3.646a.77.77 0 0 0 .733.532h3.834c.745 0 1.056.954.452 1.392l-3.102 2.254a.77.77 0 0 0-.28.86l1.185 3.648c.231.71-.58 1.299-1.184.86l-3.102-2.254a.77.77 0 0 0-.904 0l-3.103 2.254c-.603.439-1.414-.15-1.184-.86l1.185-3.647a.77.77 0 0 0-.28-.86l-3.102-2.255c-.603-.438-.293-1.392.452-1.392h3.835M57.964 2.576l.45-1.386c.183-.564.98-.564 1.164 0l.943 2.9a.612.612 0 0 0 .581.423h3.05c.593 0 .84.76.36 1.108l-2.467 1.792a.612.612 0 0 0-.223.684l.943 2.901c.183.563-.462 1.032-.942.684l-2.467-1.793a.612.612 0 0 0-.72 0l-2.467 1.793c-.48.348-1.125-.12-.941-.684l.941-2.9a.61.61 0 0 0-.221-.685l-2.469-1.792c-.48-.349-.232-1.108.36-1.108h3.05m9.082 49.649c-6.044-.268-10.912-5.277-11.017-11.326-.03-1.737.322-3.388.98-4.874.87-1.962-1.506-3.746-3.113-2.325a14.38 14.38 0 0 0-4.87 10.981c.092 7.653 6.273 13.98 13.922 14.24a14.378 14.378 0 0 0 10.519-4.04c1.53-1.48-.013-4.028-2.019-3.312a11.556 11.556 0 0 1-4.402.656z"/></g></svg>