<?xml version="1.0" encoding="UTF-8"?> <svg xmlns="http://www.w3.org/2000/svg" height="512pt" viewBox="-64 0 512 512.00043" width="512pt"><path d="m192.597656 221.273438-.597656-.300782-148.800781 104.402344c7.199219 84.898438 70.800781 186.625 149.398437 186.625 79.199219 0 143.402344-103.226562 149.398438-188.722656zm-60 149.101562c-16.5 0-30-13.5-30-30s13.5-30 30-30 30 13.5 30 30-13.5 30-30 30zm120 0c-16.5 0-30-13.5-30-30s13.5-30 30-30 30 13.5 30 30-13.5 30-30 30zm0 0" fill="#8c4a37"></path><path d="m192.597656 221.273438v290.726562c79.203125 0 143.402344-103.226562 149.402344-188.722656zm60 149.101562c-16.5 0-30-13.5-30-30s13.5-30 30-30 30 13.5 30 30-13.5 30-30 30zm0 0" fill="#663325"></path><path d="m132.597656 385.375c-24.8125 0-45-20.1875-45-45s20.1875-45 45-45c24.816406 0 45 20.1875 45 45s-20.183594 45-45 45zm0 0" fill="#c3ea21"></path><path d="m252.597656 385.375c-24.8125 0-45-20.1875-45-45s20.1875-45 45-45c24.816406 0 45 20.1875 45 45s-20.183594 45-45 45zm0 0" fill="#9cdd05"></path><path d="m341.660156 325.667969c-2.488281 0-5.066406-.628907-7.558594-1.875l-149.105468-74.398438c-5.082032-2.535156-8.304688-7.71875-8.304688-13.402343 0-5.683594 3.191406-10.882813 8.273438-13.417969l113.117187-56.703125c15.613281-7.824219 27.800781-20.582032 34.304688-35.949219 2.226562-5.226563 7.222656-8.773437 12.90625-9.109375 6.136719-.089844 11.074219 2.5625 13.917969 7.484375 33.75 58.652344 32.34375 129.917969-3.546876 186.472656-.101562.222657-.203124.425781-.320312.648438-.367188.730469-1.421875 2.34375-1.90625 3.015625-2.488281 4.832031-6.925781 7.234375-11.777344 7.234375zm.339844-17.09375h.292969zm0 0" fill="#9abadb"></path><path d="m233.097656 447.5c-11.097656 11.398438-25.800781 16.800781-40.5 16.800781-14.699218 0-29.398437-5.402343-40.496094-16.800781-6-5.699219-6-15.300781 0-21 5.699219-6 15.296876-6 20.996094 0 5.402344 5.101562 12.300782 7.800781 19.503906 7.800781 7.199219 0 14.097657-2.699219 19.5-7.800781 5.699219-6 15.296876-6 21 0 5.996094 5.699219 5.996094 15.300781-.003906 21zm0 0" fill="#ff7cb9"></path><path d="m233.097656 447.5c-11.097656 11.398438-25.800781 16.800781-40.5 16.800781v-30c7.203125 0 14.101563-2.699219 19.503906-7.800781 5.699219-6 15.296876-6 20.996094 0 6 5.699219 6 15.300781 0 21zm0 0" fill="#fa5e97"></path><path d="m311.699219 7.972656c-18-9-38.398438-10.496094-57.601563-3.898437l-61.5 20.398437-69.597656 23.402344c-73.5 24.601562-123 93.300781-123 171.300781 0 35.402344 10.5 69.898438 30 99.597657 3 4.199218 7.800781 6.300781 12.898438 6.300781 2.402343 0 4.800781-.601563 6.902343-1.5l142.796875-71.398438 118.800782-59.402343c22.203124-11.097657 39.300781-29.097657 48.601562-50.996094 5.699219-12.902344 8.699219-27.003906 8.699219-41.402344 0-39.300781-21.898438-74.699219-57-92.402344zm0 0" fill="#e0f4ff"></path><path d="m368.699219 100.375c0 14.398438-3 28.5-8.699219 41.402344-9.300781 21.898437-26.402344 39.898437-48.601562 50.996094l-118.800782 59.402343v-227.703125l61.5-20.398437c19.199219-6.597657 39.601563-5.097657 57.597656 3.898437 35.105469 17.703125 57.003907 53.101563 57.003907 92.402344zm0 0" fill="#bbdcff"></path></svg> 