<?xml version="1.0" encoding="UTF-8"?> <svg xmlns="http://www.w3.org/2000/svg" height="464pt" viewBox="-40 0 464 464" width="464pt"><path d="m32 0h208v240h-240v-208c0-17.671875 14.328125-32 32-32zm0 0" fill="#195c85"></path><path d="m0 240h384v192c0 17.671875-14.328125 32-32 32h-320c-17.671875 0-32-14.328125-32-32zm0 0" fill="#cfdfe8"></path><path d="m240 0h112c17.671875 0 32 14.328125 32 32v208h-144zm0 0" fill="#7fcac9"></path><path d="m208 120c0 48.601562-39.398438 88-88 88s-88-39.398438-88-88 39.398438-88 88-88 88 39.398438 88 88zm0 0" fill="#7fcac9"></path><path d="m288 112h48v80c0 8.835938-7.164062 16-16 16h-16c-8.835938 0-16-7.164062-16-16zm0 0" fill="#195c85"></path><path d="m336 112h-48l-16-80h80zm0 0" fill="#cfdfe8"></path><g fill="#fff"><path d="m304 32h16v48h-16zm0 0"></path><path d="m88 160c-3.148438-.003906-6.003906-1.851562-7.292969-4.722656-1.289062-2.875-.773437-6.234375 1.316407-8.589844l64-72c2.972656-3.128906 7.890624-3.335938 11.117187-.46875 3.222656 2.867188 3.59375 7.773438.835937 11.09375l-64 72c-1.511718 1.710938-3.691406 2.691406-5.976562 2.6875zm0 0"></path><path d="m80 120c-3.234375 0-6.152344-1.949219-7.390625-4.9375s-.550781-6.429688 1.734375-8.71875l40-40c3.140625-3.03125 8.128906-2.988281 11.214844.097656 3.085937 3.085938 3.128906 8.074219.097656 11.214844l-40 40c-1.5 1.5-3.535156 2.34375-5.65625 2.34375zm0 0"></path><path d="m128 168c-3.105469 0-5.933594-1.796875-7.25-4.609375s-.886719-6.132813 1.105469-8.519531l40-48c2.832031-3.398438 7.882812-3.855469 11.28125-1.023438 3.398437 2.832032 3.855469 7.882813 1.023437 11.28125l-40 48c-1.523437 1.824219-3.78125 2.875-6.160156 2.871094zm0 0"></path></g><path d="m128 304c0 17.671875-14.328125 32-32 32s-32-14.328125-32-32 14.328125-32 32-32 32 14.328125 32 32zm0 0" fill="#dd3e46"></path><path d="m128 400c0 17.671875-14.328125 32-32 32s-32-14.328125-32-32 14.328125-32 32-32 32 14.328125 32 32zm0 0" fill="#f98c96"></path><path d="m224 304c0 17.671875-14.328125 32-32 32s-32-14.328125-32-32 14.328125-32 32-32 32 14.328125 32 32zm0 0" fill="#f98c96"></path><path d="m224 400c0 17.671875-14.328125 32-32 32s-32-14.328125-32-32 14.328125-32 32-32 32 14.328125 32 32zm0 0" fill="#b11e48"></path><path d="m320 304c0 17.671875-14.328125 32-32 32s-32-14.328125-32-32 14.328125-32 32-32 32 14.328125 32 32zm0 0" fill="#b11e48"></path><path d="m320 400c0 17.671875-14.328125 32-32 32s-32-14.328125-32-32 14.328125-32 32-32 32 14.328125 32 32zm0 0" fill="#dd3e46"></path><path d="m32 352c-4.417969 0-8-3.582031-8-8v-72c0-4.417969 3.582031-8 8-8s8 3.582031 8 8v72c0 4.417969-3.582031 8-8 8zm0 0" fill="#fff"></path><path d="m32 400c-4.417969 0-8-3.582031-8-8v-16c0-4.417969 3.582031-8 8-8s8 3.582031 8 8v16c0 4.417969-3.582031 8-8 8zm0 0" fill="#fff"></path><path d="m352 440c-4.417969 0-8-3.582031-8-8v-24c0-4.417969 3.582031-8 8-8s8 3.582031 8 8v24c0 4.417969-3.582031 8-8 8zm0 0" fill="#fff"></path><path d="m352 384c-4.417969 0-8-3.582031-8-8v-24c0-4.417969 3.582031-8 8-8s8 3.582031 8 8v24c0 4.417969-3.582031 8-8 8zm0 0" fill="#fff"></path></svg> 