<?xml version="1.0" encoding="UTF-8"?> <!-- Generator: Adobe Illustrator 19.0.0, SVG Export Plug-In . SVG Version: 6.00 Build 0) --> <svg xmlns="http://www.w3.org/2000/svg" xmlns:xlink="http://www.w3.org/1999/xlink" id="Layer_1" x="0px" y="0px" viewBox="0 0 512 512" style="enable-background:new 0 0 512 512;" xml:space="preserve"> <path style="fill:#FCB5B5;" d="M364.084,75.641H147.917c-32.41,29.407-52.778,71.844-52.778,119.029V512H416.86V194.671 C416.86,147.487,396.494,105.048,364.084,75.641z"></path> <path style="fill:#F9545B;" d="M256.001,0c-59.652,0-108.083,26.335-108.083,85.962v148.749c0,25.943,9.162,49.767,24.436,68.41 l167.319,0.026c15.262-18.643,24.412-42.479,24.412-68.434V85.962C364.084,26.335,315.787,0,256.001,0z"></path> <path style="fill:#FC7576;" d="M339.672,303.146c-19.806,24.191-49.902,39.649-83.672,39.649c-33.696,0-63.816-15.458-83.647-39.674 c19.745-24.522,49.718-40.299,83.647-40.299C289.942,262.823,319.927,278.611,339.672,303.146z"></path> <g> </g> <g> </g> <g> </g> <g> </g> <g> </g> <g> </g> <g> </g> <g> </g> <g> </g> <g> </g> <g> </g> <g> </g> <g> </g> <g> </g> <g> </g> </svg> 