<?xml version="1.0" encoding="UTF-8"?> <!-- Generator: Adobe Illustrator 19.0.0, SVG Export Plug-In . SVG Version: 6.00 Build 0) --> <svg xmlns="http://www.w3.org/2000/svg" xmlns:xlink="http://www.w3.org/1999/xlink" id="Capa_1" x="0px" y="0px" viewBox="0 0 512 512" style="enable-background:new 0 0 512 512;" xml:space="preserve"> <g> <g transform="translate(1 1)"> <path style="fill:#7FACFA;" d="M417.133,297.667c0,113.108-91.692,204.8-204.8,204.8s-204.8-91.692-204.8-204.8H417.133z"></path> <path style="fill:#E3E7F2;" d="M391.533,297.667c0,113.071-85.92,204.8-192,204.8s-192-91.729-192-204.8H391.533z"></path> <path style="fill:#7FACFA;" d="M263.533,248.088c88.32,5.717,153.6,25.771,153.6,49.579c0,25.088-72.533,46.08-168.192,50.347 c-11.861,0.597-24.064,0.853-36.608,0.853c-113.067,0-204.8-22.955-204.8-51.2s91.733-51.2,204.8-51.2 c5.717,0,11.435,0.085,17.067,0.171L263.533,248.088z"></path> <path style="fill:#E3E7F2;" d="M247.533,248.088c82.8,5.717,144,25.771,144,49.579c0,25.088-68,46.08-157.68,50.347 c-11.12,0.597-22.56,0.853-34.32,0.853c-106,0-192-22.955-192-51.2s86-51.2,192-51.2c5.36,0,10.72,0.085,16,0.171L247.533,248.088 z"></path> <path style="fill:#A4C2F7;" d="M502.467,41.667c0.002,9.053-3.593,17.737-9.995,24.139c-6.402,6.402-15.085,9.997-24.139,9.995 H265.325c1.997-10.879,6.052-21.276,11.947-30.635c1.534-2.524,3.306-4.895,5.291-7.083c8.408-8.136,13.744-18.929,15.104-30.549 h170.667c9.056-0.012,17.746,3.58,24.149,9.984S502.479,32.61,502.467,41.667z"></path> <path style="fill:#E3E7F2;" d="M476.867,41.667c0.002,9.053-3.593,17.737-9.995,24.139c-6.402,6.402-15.085,9.997-24.139,9.995 H265.325c1.997-10.879,6.052-21.276,11.947-30.635c1.534-2.524,3.306-4.895,5.291-7.083c8.408-8.136,13.744-18.929,15.104-30.549 h145.067c9.056-0.012,17.746,3.58,24.149,9.984S476.879,32.61,476.867,41.667z"></path> <path style="fill:#7FACFA;" d="M297.667,7.533c-1.36,11.621-6.696,22.413-15.104,30.549c-1.985,2.187-3.756,4.559-5.291,7.083 c-5.895,9.358-9.95,19.756-11.947,30.635c-1.196,6.33-1.796,12.758-1.792,19.2v177.067c-0.068,9.397-7.669,16.999-17.067,17.067 c-9.414-0.028-17.039-7.652-17.067-17.067V127c-0.068-9.397-7.669-16.999-17.067-17.067c-9.414,0.028-17.039,7.652-17.067,17.067 v51.2c-0.068,9.397-7.669,16.999-17.067,17.067c-9.414-0.028-17.039-7.652-17.067-17.067V127c0-9.426-7.641-17.067-17.067-17.067 S127,117.574,127,127c-0.068,9.397-7.669,16.999-17.067,17.067c-9.414-0.028-17.039-7.652-17.067-17.067V41.667 c-0.012-9.056,3.58-17.746,9.984-24.149c6.404-6.404,15.093-9.996,24.149-9.984L297.667,7.533z"></path> <linearGradient id="SVGID_1_" gradientUnits="userSpaceOnUse" x1="-49.6268" y1="651.5329" x2="-48.596" y2="650.7832" gradientTransform="matrix(204.8 0 0 -281.6 10283.8643 183471.75)"> <stop offset="0" style="stop-color:#D4E1F4"></stop> <stop offset="0.1717" style="stop-color:#D4E1F4"></stop> <stop offset="0.2" style="stop-color:#D4E1F4"></stop> <stop offset="0.2001" style="stop-color:#DAE4F4"></stop> <stop offset="0.2007" style="stop-color:#EBEBF4"></stop> <stop offset="0.2014" style="stop-color:#F6F1F4"></stop> <stop offset="0.2023" style="stop-color:#FDF4F4"></stop> <stop offset="0.205" style="stop-color:#FFF5F4"></stop> <stop offset="0.2522" style="stop-color:#FFF5F4"></stop> <stop offset="0.26" style="stop-color:#FFF5F4"></stop> <stop offset="0.26" style="stop-color:#D4E1F4"></stop> <stop offset="0.3974" style="stop-color:#D4E1F4"></stop> <stop offset="0.42" style="stop-color:#D4E1F4"></stop> <stop offset="0.4201" style="stop-color:#DAE4F4"></stop> <stop offset="0.4207" style="stop-color:#EBEBF4"></stop> <stop offset="0.4214" style="stop-color:#F6F1F4"></stop> <stop offset="0.4223" style="stop-color:#FDF4F4"></stop> <stop offset="0.425" style="stop-color:#FFF5F4"></stop> <stop offset="0.4894" style="stop-color:#FFF5F4"></stop> <stop offset="0.5" style="stop-color:#FFF5F4"></stop> <stop offset="0.5" style="stop-color:#F9F2F4"></stop> <stop offset="0.5001" style="stop-color:#E8EBF4"></stop> <stop offset="0.5003" style="stop-color:#DDE5F4"></stop> <stop offset="0.5005" style="stop-color:#D6E2F4"></stop> <stop offset="0.501" style="stop-color:#D4E1F4"></stop> <stop offset="0.7062" style="stop-color:#D4E1F4"></stop> <stop offset="0.74" style="stop-color:#D4E1F4"></stop> <stop offset="0.741" style="stop-color:#FFF5F4"></stop> <stop offset="0.8346" style="stop-color:#FFF5F4"></stop> <stop offset="0.85" style="stop-color:#FFF5F4"></stop> <stop offset="0.851" style="stop-color:#D4E1F4"></stop> </linearGradient> <path style="fill:url(#SVGID_1_);" d="M297.667,7.533c-1.36,11.621-6.696,22.413-15.104,30.549 c-1.985,2.187-3.756,4.559-5.291,7.083c-5.895,9.358-9.95,19.756-11.947,30.635c-1.196,6.33-1.796,12.758-1.792,19.2v177.067 c-0.068,9.397-7.669,16.999-17.067,17.067c-9.414-0.028-17.039-7.652-17.067-17.067V127c-0.068-9.397-7.669-16.999-17.067-17.067 c-9.414,0.028-17.039,7.652-17.067,17.067v51.2c-0.068,9.397-7.669,16.999-17.067,17.067c-9.414-0.028-17.039-7.652-17.067-17.067 V127c0-9.426-7.641-17.067-17.067-17.067S127,117.574,127,127c-0.068,9.397-7.669,16.999-17.067,17.067 c-9.414-0.028-17.039-7.652-17.067-17.067V41.667c-0.012-9.056,3.58-17.746,9.984-24.149c6.404-6.404,15.093-9.996,24.149-9.984 L297.667,7.533z"></path> <g> <path style="fill:#FFFFFF;" d="M217.624,502.296c-1.792,0.171-3.499,0.171-5.291,0.171c-2.219,0-4.437-0.085-6.571-0.171 c-2.133,0.085-4.181,0.171-6.229,0.171c-106.069,0-192-91.733-192-204.8c0-28.245,86.016-51.2,192-51.2 c1.621,0,3.157,0,4.779,0.085c2.645-0.085,5.291-0.085,8.021-0.085c1.963,0,3.925,0,5.888,0.085 c-102.827,0.939-185.088,23.467-185.088,51.115C33.133,408.088,115.053,498.115,217.624,502.296z"></path> <path style="fill:#FFFFFF;" d="M92.867,127V41.667c-0.012-9.056,3.58-17.746,9.984-24.149c6.404-6.404,15.093-9.996,24.149-9.984 l25.6,0c-9.056-0.012-17.746,3.58-24.149,9.984c-6.404,6.404-9.996,15.093-9.984,24.149V127c0.006,4.123,1.524,8.1,4.267,11.179 c-0.256,0.256-0.512,0.597-0.768,0.853c-3.161,3.241-7.504,5.059-12.032,5.035C100.519,144.039,92.894,136.414,92.867,127z"></path> <path style="fill:#FFFFFF;" d="M229.4,246.552v0.085c-3.328-0.085-6.656-0.085-10.069-0.085c1.963-0.085,3.84-0.085,5.803-0.085 C226.584,246.467,227.949,246.467,229.4,246.552z"></path> </g> </g> <g> <path style="fill:#FFFFFF;" d="M17.067,298.667c0.237,70.689,38.293,135.843,99.748,170.774 c29.499,16.523,62.708,25.294,96.519,25.492V512c-36.759-0.2-72.865-9.734-104.93-27.709C41.599,446.33,0.236,375.503,0,298.667 H17.067z"></path> <g> <path style="fill:#428DFF;" d="M27.708,369.176c0.911-1.991,1.025-4.256,0.319-6.329c-0.818-2.058-2.374-3.737-4.364-4.708 l-1.509-0.575c-0.538-0.168-1.095-0.263-1.658-0.283c-0.527-0.094-1.065-0.108-1.596-0.042c-0.565,0.071-1.124,0.179-1.674,0.326 c-2.187,0.683-4.024,2.187-5.126,4.196c-0.454,1.035-0.697,2.151-0.714,3.281c-0.084,3.536,1.855,6.811,4.996,8.439 c1.026,0.453,2.133,0.695,3.255,0.71c1.111,0.043,2.22-0.14,3.259-0.538C24.982,372.782,26.689,371.194,27.708,369.176z"></path> <path style="fill:#428DFF;" d="M469.333,0H128c-11.32-0.012-22.179,4.479-30.183,12.483S85.321,31.347,85.333,42.667V128 c0.015,14.132,11.468,25.585,25.6,25.6c14.111-0.066,25.534-11.489,25.6-25.6c-0.005-2.302,0.942-4.504,2.617-6.083 c1.613-1.57,3.784-2.435,6.035-2.404c2.251,0.031,4.397,0.956,5.965,2.57c1.586,1.558,2.471,3.694,2.45,5.917v51.2 c0.015,14.132,11.468,25.585,25.6,25.6c14.111-0.066,25.534-11.489,25.6-25.6V128c0.003-4.712,3.822-8.53,8.533-8.533 c2.302-0.005,4.504,0.942,6.083,2.617c1.586,1.558,2.471,3.694,2.45,5.917v111.016c-2.848-0.031-5.675-0.083-8.533-0.083 C107.317,238.933,0,259.45,0,298.667l0.89,17.747c0.444,5.908,1.203,11.788,2.271,17.616c0.271,2.279,1.491,4.339,3.359,5.673 c1.868,1.334,4.213,1.818,6.456,1.333c4.504-1.001,7.529-5.235,7.017-9.82c-0.252-2.114-0.616-4.217-0.973-6.319 c35.445,22.08,115.227,33.504,194.313,33.504c13.317,0,25.425-0.283,36.992-0.858c59.251-2.641,125.706-12.708,157.456-32.525 c-13.287,97.251-96.293,169.785-194.448,169.917c-33.811-0.198-67.019-8.969-96.519-25.492 c-29.434-16.673-54.053-40.677-71.467-69.679l-4.253-6.985c-2.161-4.044-7.155-5.623-11.248-3.557 c-2.063,1.055-3.617,2.891-4.316,5.1c-0.699,2.208-0.485,4.605,0.595,6.654l4.607,7.602 c18.928,31.514,45.685,57.596,77.67,75.715c32.065,17.975,68.171,27.509,104.93,27.709 c117.766-0.132,213.201-95.567,213.333-213.333c0-33.923-77.886-51.792-153.6-57.528V96c0.029-3.565,0.257-7.127,0.683-10.667 h195.583c23.564,0,42.667-19.103,42.667-42.667S492.898,0,469.333,0z M213.333,102.4c-14.132,0.015-25.585,11.468-25.6,25.6v51.2 c0.005,2.302-0.942,4.504-2.617,6.083c-1.558,1.586-3.694,2.471-5.917,2.45c-4.712-0.003-8.53-3.822-8.533-8.533V128 c0.055-6.756-2.633-13.245-7.45-17.983c-10.06-9.713-25.984-9.786-36.133-0.167c-4.905,4.76-7.656,11.315-7.617,18.15 c0.005,2.302-0.942,4.504-2.617,6.083c-1.558,1.586-3.694,2.471-5.917,2.45c-4.712-0.003-8.53-3.822-8.533-8.533V42.667 c-0.013-6.794,2.679-13.313,7.483-18.117s11.323-7.497,18.117-7.483l159.964,0c-2.597,5.989-6.211,11.484-10.681,16.242 c-2.324,2.545-4.397,5.308-6.192,8.25C260.951,57.886,255.712,76.782,256,96v177.067c0.005,2.302-0.942,4.504-2.617,6.083 c-1.558,1.586-3.694,2.471-5.917,2.45c-4.712-0.003-8.53-3.822-8.533-8.533V128C238.867,113.889,227.444,102.466,213.333,102.4z M409.6,298.667c0,14.175-56.992,37.225-160.083,41.825c-11.317,0.567-23.158,0.842-36.183,0.842 c-119.808,0-196.267-25.267-196.267-42.667c0-17.4,76.459-42.667,196.267-42.667c2.85,0,5.7,0.025,8.533,0.05v17.017 c0.015,14.132,11.468,25.585,25.6,25.6c14.111-0.066,25.534-11.489,25.6-25.6V258.25C362.217,265.15,409.6,285.833,409.6,298.667 z M469.333,68.267H277.466c1.93-6.209,4.649-12.143,8.092-17.658c1.261-2.083,2.724-4.036,4.367-5.833 c7.479-7.812,12.953-17.319,15.955-27.708h163.453c14.138,0,25.6,11.462,25.6,25.6S483.472,68.267,469.333,68.267z"></path> </g> </g> </g> <g> </g> <g> </g> <g> </g> <g> </g> <g> </g> <g> </g> <g> </g> <g> </g> <g> </g> <g> </g> <g> </g> <g> </g> <g> </g> <g> </g> <g> </g> </svg> 